<svg width="14" height="14" viewBox="0 0 14 14" fill="none" xmlns="http://www.w3.org/2000/svg">
<path fill-rule="evenodd" clip-rule="evenodd" d="M6.80046 13.6668C10.4824 13.6668 13.4671 10.6821 13.4671 7.00016C13.4671 3.31826 10.4824 0.333496 6.80046 0.333496C3.11856 0.333496 0.133789 3.31826 0.133789 7.00016C0.133789 10.6821 3.11856 13.6668 6.80046 13.6668ZM11.0137 10.2706C11.7157 9.36752 12.1338 8.23266 12.1338 7.00016C12.1338 4.28042 10.098 2.03616 7.46712 1.70809V4.41751C8.61727 4.71354 9.46712 5.7576 9.46712 7.00016C9.46712 7.49473 9.33249 7.95785 9.09787 8.35487L11.0137 10.2706ZM10.0708 11.2134L8.15504 9.29765C7.75804 9.53222 7.29497 9.66683 6.80046 9.66683C6.30594 9.66683 5.84287 9.53222 5.44587 9.29765L3.53008 11.2134C4.4332 11.9155 5.56801 12.3335 6.80046 12.3335C8.0329 12.3335 9.16772 11.9155 10.0708 11.2134ZM4.13379 7.00016C4.13379 7.49473 4.26842 7.95785 4.50304 8.35487L2.58726 10.2706C1.88519 9.36752 1.46712 8.23266 1.46712 7.00016C1.46712 4.28042 3.50291 2.03616 6.13379 1.70809V4.41751C4.98364 4.71354 4.13379 5.7576 4.13379 7.00016ZM6.80046 8.3335C7.53684 8.3335 8.13379 7.73654 8.13379 7.00016C8.13379 6.26378 7.53684 5.66683 6.80046 5.66683C6.06408 5.66683 5.46712 6.26378 5.46712 7.00016C5.46712 7.73654 6.06408 8.3335 6.80046 8.3335Z" fill="#FCFCFD"/>
</svg>
