<svg xmlns="http://www.w3.org/2000/svg" width="360" height="73" viewBox="0 0 360 73" fill="none"><path d="M359.101 0H323.749V70.6874H359.101V0Z" fill="#006EFA"></path><path d="M0 43.1597H8.97287C9.63366 47.4027 13.7201 49.3155 18.3631 49.3155C22.1887 49.3155 25.4405 48.307 25.4405 44.8117C25.4405 41.9077 22.8495 41.0035 20.0325 40.3253L11.8769 38.2559C6.22536 36.8474 0.991189 33.6826 0.991189 25.4574C0.991189 16.9715 7.80779 12.8154 16.5372 12.8154C25.7709 12.8154 32.1876 16.9715 33.0049 26.5356H23.8581C23.1973 22.7969 19.9455 21.2145 15.9634 21.2145C13.3028 21.2145 9.80755 22.2056 9.80755 25.6139C9.80755 28.2049 12.2942 29.0918 14.6244 29.6135L22.6061 31.5959C30.4312 33.5956 34.3264 36.917 34.3264 45.0725C34.2395 53.5411 27.6837 57.6972 18.3805 57.6972C8.39902 57.6972 0.504289 52.9673 0 43.1597Z" fill="#006EFA"></path><path d="M51.7855 31.4402L67.8184 13.9119H78.3737L62.9146 30.7795L80.7038 56.8634H70.5659L57.1066 37.0918L51.7855 42.8998V56.8112H43.0908V1.47852H51.7855V31.4402Z" fill="#006EFA"></path><path d="M101.572 66.7572C100.32 70.3393 97.2425 72.1652 92.0952 72.1652H87.6088V63.7662H89.3477C93.5907 63.7662 93.7646 63.0185 95.1731 59.4537L96.3382 56.2888L81.0356 13.9111H90.0955L100.859 44.4815L111.536 13.9111H120.596L101.572 66.7572Z" fill="#006EFA"></path><path d="M170.36 55.0366V50.3067C169.108 52.7934 164.865 55.2105 160.379 55.2105C152.988 55.2105 143.337 50.6371 143.337 37.4213V30.6047C143.337 17.3888 152.988 12.8154 160.379 12.8154C164.865 12.8154 169.074 15.2325 170.36 17.7192V13.911H179.055V55.2105C179.055 69.3306 168.621 72.9997 161.196 72.9997C154.136 72.9997 144.659 69.7479 143.494 57.6972H152.397C153.319 62.3575 156.727 64.6529 161.301 64.6529C166.622 64.6007 170.36 61.5228 170.36 55.0366ZM152.067 37.2474C152.067 43.7336 155.806 46.7245 161.214 46.7245C166.622 46.7245 170.36 43.7336 170.36 37.2474V30.7786C170.36 24.2924 166.622 21.3014 161.214 21.3014C155.806 21.3014 152.067 24.3445 152.067 30.7786V37.2474Z" fill="#006EFA"></path><path d="M198.202 27.2833H189.299C190.795 15.8933 200.028 12.8154 206.932 12.8154C214.409 12.8154 224.791 16.4846 224.791 30.6047V56.8625H216.096V52.7934C213.366 56.1147 208.949 57.6972 203.297 57.6972C195.49 57.6972 188.673 53.802 188.673 44.9856C188.536 42.0993 189.384 39.2522 191.077 36.911C192.771 34.5698 195.21 32.8735 197.994 32.1001C203.21 30.5177 208.792 30.1004 216.026 29.6135V29.5613C215.609 23.9967 212.027 21.2492 206.967 21.2492C202.602 21.2145 199.35 23.2142 198.202 27.2833ZM216.061 39.7514V37.3343C208.427 37.8386 202.602 38.3429 199.454 40.2557C198.773 40.6619 198.217 41.249 197.848 41.952C197.48 42.6549 197.314 43.4461 197.368 44.2379C197.368 47.7157 200.028 49.3155 204.689 49.3155C209.662 49.3155 216.061 47.7331 216.061 39.7514Z" fill="#006EFA"></path><path d="M248.493 44.4126C248.493 47.5601 247.832 48.4817 251.24 48.4817H263.569V56.8633H249.988C242.841 56.8633 239.763 53.3855 239.763 46.6558V22.2065H230.791V13.9118H239.763V4.26074H248.458V13.9118H263.535V22.1369H248.458L248.493 44.4126Z" fill="#006EFA"></path><path d="M296.726 43.3162H305.629C304.134 54.7062 294.9 57.7841 288.014 57.7841C280.519 57.7841 270.138 54.1323 270.138 39.9948V30.6916C270.138 16.5541 280.571 12.9023 288.014 12.9023C295.456 12.9023 305.873 16.5541 305.873 30.6916V38.4124H278.867V39.8383C278.867 46.3071 282.606 49.3851 288.014 49.3851C292.326 49.3851 295.578 47.4027 296.726 43.3162ZM278.867 30.6046H297.143C297.143 24.3793 293.318 21.3014 288.014 21.3014C282.71 21.3014 278.867 24.3445 278.867 30.6046Z" fill="#006EFA"></path></svg>