<svg width="11" height="10" viewBox="0 0 11 10" fill="none" xmlns="http://www.w3.org/2000/svg">
<path fill-rule="evenodd" clip-rule="evenodd" d="M5.7998 10C6.35209 10 6.7998 9.55228 6.7998 9V6H9.7998C10.3521 6 10.7998 5.55228 10.7998 5C10.7998 4.44771 10.3521 4 9.7998 4H6.7998V1C6.7998 0.447715 6.35209 0 5.7998 0C5.24752 0 4.7998 0.447715 4.7998 1V4H1.7998C1.24752 4 0.799805 4.44771 0.799805 5C0.799805 5.55228 1.24752 6 1.7998 6H4.7998V9C4.7998 9.55228 5.24752 10 5.7998 10Z" fill="#B1B5C4"/>
</svg>
