<svg width="24" height="24" viewBox="0 0 24 24" fill="none" xmlns="http://www.w3.org/2000/svg">
<path fill-rule="evenodd" clip-rule="evenodd" d="M8.99858 10.0399C9.02798 10.5914 8.60474 11.0623 8.05324 11.0917C7.30055 11.1318 6.7044 11.1809 6.23854 11.23C5.61292 11.296 5.23278 11.6803 5.16959 12.2331C5.07886 13.0267 5 14.2278 5 16C5 17.7723 5.07886 18.9733 5.16959 19.7669C5.23289 20.3207 5.61207 20.7039 6.23675 20.7698C7.33078 20.8853 9.13925 21 12 21C14.8608 21 16.6692 20.8853 17.7632 20.7698C18.3879 20.7039 18.7671 20.3207 18.8304 19.7669C18.9211 18.9733 19 17.7723 19 16C19 14.2278 18.9211 13.0267 18.8304 12.2331C18.7672 11.6803 18.3871 11.296 17.7615 11.23C17.2956 11.1809 16.6995 11.1318 15.9468 11.0917C15.3953 11.0623 14.972 10.5914 15.0014 10.0399C15.0308 9.48837 15.5017 9.06512 16.0532 9.09452C16.8361 9.13626 17.4669 9.18787 17.9712 9.24106C19.4556 9.39761 20.6397 10.4507 20.8175 12.0059C20.9188 12.8923 21 14.1715 21 16C21 17.8285 20.9188 19.1077 20.8175 19.9941C20.6398 21.5484 19.4585 22.602 17.9732 22.7588C16.7919 22.8834 14.9108 23 12 23C9.08922 23 7.20806 22.8834 6.02684 22.7588C4.54151 22.602 3.36021 21.5484 3.18253 19.9941C3.0812 19.1077 3 17.8285 3 16C3 14.1715 3.0812 12.8923 3.18253 12.0059C3.36031 10.4507 4.54436 9.39761 6.02877 9.24106C6.53306 9.18787 7.16393 9.13626 7.94676 9.09452C8.49827 9.06512 8.96918 9.48837 8.99858 10.0399Z" fill="#777E91"/>
<path fill-rule="evenodd" clip-rule="evenodd" d="M9.20711 6.20711C8.81658 6.59763 8.18342 6.59763 7.79289 6.20711C7.40237 5.81658 7.40237 5.18342 7.79289 4.79289L11.2929 1.29289C11.6834 0.902369 12.3166 0.902369 12.7071 1.29289L16.2071 4.79289C16.5976 5.18342 16.5976 5.81658 16.2071 6.20711C15.8166 6.59763 15.1834 6.59763 14.7929 6.20711L13 4.41421V14C13 14.5523 12.5523 15 12 15C11.4477 15 11 14.5523 11 14V4.41421L9.20711 6.20711Z" fill="#777E91"/>
</svg>
