<svg width="20" height="20" viewBox="0 0 20 20" fill="none" xmlns="http://www.w3.org/2000/svg">
<path fill-rule="evenodd" clip-rule="evenodd" d="M9.19253 12.5017C9.65244 12.4844 10.0393 12.8431 10.0567 13.303C10.0958 14.3399 10.1508 15.0966 10.2049 15.6392C10.2581 16.1735 10.5807 16.495 11.0303 16.5499C11.5605 16.6148 12.3085 16.6678 13.3349 16.6678C14.3613 16.6678 15.1092 16.6148 15.6394 16.5499C16.0889 16.495 16.4116 16.1734 16.4648 15.6389C16.5652 14.6318 16.6682 12.8918 16.6682 10.0011C16.6682 7.11046 16.5652 5.37048 16.4648 4.36337C16.4116 3.82891 16.0889 3.50728 15.6394 3.45234C15.1092 3.38752 14.3613 3.33447 13.3349 3.33447C12.3085 3.33447 11.5605 3.38751 11.0303 3.45233C10.5807 3.5073 10.2581 3.82879 10.2049 4.36311C10.1508 4.90568 10.0959 5.66242 10.0567 6.69924C10.0393 7.15915 9.65244 7.51791 9.19253 7.50055C8.73262 7.48318 8.37387 7.09628 8.39123 6.63637C8.4314 5.57217 8.48837 4.78066 8.54642 4.1979C8.66847 2.97276 9.52264 1.95756 10.8281 1.79798C11.4358 1.72369 12.2522 1.6678 13.3349 1.6678C14.4175 1.6678 15.234 1.7237 15.8417 1.79798C17.1472 1.95759 18.0013 2.97326 18.1233 4.19816C18.2307 5.27671 18.3349 7.07487 18.3349 10.0011C18.3349 12.9274 18.2307 14.7256 18.1233 15.8041C18.0013 17.029 17.1472 18.0447 15.8417 18.2043C15.234 18.2786 14.4176 18.3345 13.3349 18.3345C12.2522 18.3345 11.4358 18.2786 10.8281 18.2043C9.52264 18.0447 8.66847 17.0295 8.54642 15.8044C8.48837 15.2216 8.4314 14.4301 8.39123 13.3659C8.37387 12.906 8.73262 12.5191 9.19253 12.5017Z" fill="#777E91"/>
<path fill-rule="evenodd" clip-rule="evenodd" d="M6.00722 12.3284C6.33266 12.6538 6.33266 13.1815 6.00722 13.5069C5.68179 13.8323 5.15415 13.8323 4.82871 13.5069L1.91205 10.5902C1.58661 10.2648 1.58661 9.73716 1.91205 9.41172L4.82871 6.49505C5.15415 6.16962 5.68179 6.16962 6.00722 6.49505C6.33266 6.82049 6.33266 7.34813 6.00722 7.67357L4.51315 9.16764H12.5013C12.9615 9.16764 13.3346 9.54074 13.3346 10.001C13.3346 10.4612 12.9615 10.8343 12.5013 10.8343L4.51315 10.8343L6.00722 12.3284Z" fill="#777E91"/>
</svg>
