<svg width="21" height="20" viewBox="0 0 21 20" fill="none" xmlns="http://www.w3.org/2000/svg">
<path fill-rule="evenodd" clip-rule="evenodd" d="M10.7998 2C8.84757 2 7.04797 2.161 5.60351 2.35177C4.30353 2.52346 3.32327 3.50372 3.15158 4.80371C2.96081 6.24816 2.7998 8.04777 2.7998 10C2.7998 11.9522 2.96081 13.7518 3.15158 15.1963C3.32327 16.4963 4.30353 17.4765 5.60351 17.6482C7.04797 17.839 8.84757 18 10.7998 18C12.752 18 14.5516 17.839 15.9961 17.6482C17.2961 17.4765 18.2763 16.4963 18.448 15.1963C18.6388 13.7518 18.7998 11.9522 18.7998 10C18.7998 8.04777 18.6388 6.24816 18.448 4.80371C18.2763 3.50372 17.2961 2.52346 15.9961 2.35177C14.5516 2.16101 12.752 2 10.7998 2ZM5.34164 0.368993C3.14485 0.659124 1.45893 2.34504 1.1688 4.54184C0.969339 6.05208 0.799805 7.94127 0.799805 10C0.799805 12.0587 0.969339 13.9479 1.1688 15.4582C1.45893 17.655 3.14485 19.3409 5.34164 19.631C6.85189 19.8305 8.74108 20 10.7998 20C12.8585 20 14.7477 19.8305 16.258 19.631C18.4548 19.3409 20.1407 17.655 20.4308 15.4582C20.6303 13.9479 20.7998 12.0587 20.7998 10C20.7998 7.94127 20.6303 6.05208 20.4308 4.54184C20.1407 2.34504 18.4548 0.659124 16.258 0.368993C14.7477 0.169534 12.8585 0 10.7998 0C8.74108 0 6.85189 0.169534 5.34164 0.368993Z" fill="#B1B5C4"/>
</svg>
