<svg width="20" height="16" viewBox="0 0 20 16" fill="none" xmlns="http://www.w3.org/2000/svg">
<path fill-rule="evenodd" clip-rule="evenodd" d="M2.65115 9.6665C1.27305 9.67042 0.383457 11.2403 1.23245 12.4298C2.4483 14.133 4.6531 15.5 8.33395 15.5C14.0382 15.5 18.617 10.8514 17.976 5.35925L18.9151 3.48108C19.5664 2.17857 18.4347 0.69685 17.0067 0.98245L15.766 1.23057C15.4371 1.05702 15.0967 0.926058 14.8058 0.831175C14.2388 0.646267 13.5525 0.5 12.9173 0.5C11.7762 0.5 10.7914 0.792758 10.0087 1.37994C9.23495 1.96053 8.79911 2.72354 8.55995 3.42421C8.4497 3.74717 8.37628 4.07112 8.32917 4.38203C7.88645 4.24269 7.43502 4.05522 6.99307 3.82629C5.9904 3.30693 5.17961 2.64852 4.72224 2.07126C3.95488 1.10275 2.32868 1.17456 1.75803 2.43351C0.953746 4.20789 1.17437 6.31122 1.89732 8.01075C2.13964 8.58033 2.45485 9.14342 2.83994 9.66525C2.77401 9.666 2.71095 9.66633 2.65115 9.6665ZM8.33386 13.8333C5.11441 13.8333 3.44969 12.6672 2.5889 11.4614C2.55022 11.4072 2.58922 11.3333 2.65578 11.3332C3.53148 11.3307 5.32898 11.2892 6.51448 10.5954C6.57579 10.5595 6.5623 10.4691 6.49496 10.4465C3.73149 9.51733 2.16063 5.58216 3.27595 3.12158C3.30152 3.06517 3.37735 3.05772 3.41583 3.10628C4.68989 4.71432 7.47555 6.28933 9.8992 6.33242C9.95178 6.33333 9.99153 6.28558 9.98353 6.23361C9.88586 5.60044 9.51295 2.16667 12.9172 2.16667C13.7301 2.16667 14.9396 2.56319 15.3851 2.96942C15.4057 2.98819 15.4336 2.99672 15.4609 2.99125L17.3334 2.61675C17.4014 2.60315 17.4554 2.67371 17.4244 2.73573L16.2629 5.05849C16.2549 5.07462 16.2524 5.09312 16.2554 5.11088C17.0689 9.68333 13.3239 13.8333 8.33386 13.8333Z" fill="#777E91"/>
</svg>
